<svg xmlns="http://www.w3.org/2000/svg" xmlns:xlink="http://www.w3.org/1999/xlink" viewBox="-67 0 400 267"><defs><clipPath id="d"><use width="400" height="267" xlink:href="#a"/></clipPath><path id="a" fill="#fff" d="M146 45zm18 176l-2-1-7 2-7-4v1l-1-2 2-2-1-5h2l2-3 1-1-1-2h2v-3l-2-1h2l-1-7-4-3-2 1 1 2h-8l-6-2-2-1-12-3-1 1-4 1h-1l-2 3-5-4-3 1v2l-6-3v2l-7-3-3 2-1-3-8-4-8-2-2-7v-2l-3-5 2-8h-3l-1-3 4-1h-2l1-4-7 2v-2l-1 3-4 2-2-3-1-2-1-5 2-1 1 1 1-2-2-10h3l1-11 3-2h-3l-2-2 6-6-5-1-4 3-1-4-2 3-1-2-2 1-2 1 1-5-1-1 1-1h-2v-3h6l-1-2h-1l-4-5h-2l-1-2v2l-2-1 2-1-3-1 1-2-3-1v-5h-2l1-1-2-6v-2l1-7h2l-1 4 5 6 3 5 6 1v1l1-2 4 4 2 2v1l11 5 1 1h1l5 6 2-1 20-5 1-3 1 1v-2h1l4-2v-4l1-1 2-7-1-3 4-10v-6h2l3-4 3-1v-3l4-5 2 1 8-3 1-1 2-2-1-3h2l1 5 9 2 2-1 8 2 1-1 4-2v3h4l3 2v1l5 4h5l3 1 4-2 1 3 2 1 1-3h2l1 7 2 1-1 2h1l3-2 3-1 10 4 1-1 1 3 2 1v-2h2v3l3-2 5 3 2 7h-2v5l1 2 6 16-3 3v3l-3 3 3 2-1 1 3 3 4 1 1 1 1 3 3 1 4-2h2l-3 4 3 8-4 3 2 4-1 5 2 2 5 1-5 6 1 2 1 1-2 3 2 1-11 9 3 6-1 3-3 2-1 3-4 1-2 4v2l4 2-7 1 2 3-3 3-5 1-1 3 3 2-7 6 3 3-6-1-6 3-8 4-2 3-1-1 1-3-5 2-1-2-8 5-4-1-6 1-2-1m0-172v-1h-1v1h1zm-2 171l2 1-2-1zm0 0l2 1M39 99v-2l-3-2 3 4zm-7-17h-2l1 3 1-2v-1zm-1-2l-1 1 2 1-1-2zm8 19v-2l-3-2 3 4zm-7-17h-2l1 3 1-2v-1zm-1-2l-1 1 2 1-1-2zm8 19v-2l-3-2 3 4zm-7-17h-2l1 3 1-2v-1zm-1-2l-1 1 2 1-1-2zm5-7v-2l-2 1 1 1h1zm-2-6l1 1 1-3-2 2zm2 6v-2l-2 1 1 1h1zm-2-6l1 1 1-3-2 2zm2 6v-2l-2 1 1 1h1zm-2-6l1 1 1-3-2 2zm32 91h-2l-2 2h3l1-2zm0 0h-2l-2 2h3l1-2zm0 0h-2l-2 2h3l1-2zm2-61h-1l-1-1 1 1h1z" transform="translate(0 -1.5)"/><g id="c" fill="none"><circle cx="133.5" cy="133.5" r="49.5"/><circle cx="133.5" cy="133.5" r="92.5"/><circle cx="133.5" cy="133.5" r="133"/><path id="b" d="M-100 134h467M134-100v467"/><use width="400" height="267" transform="rotate(30 133.5 133.5)" xlink:href="#b"/><use width="400" height="267" transform="rotate(60 133.5 133.5)" xlink:href="#b"/></g></defs><path fill="#072b5f" d="M-67 0h400v267H-67z"/><use width="400" height="267" stroke="#fff" stroke-width="2" xlink:href="#c"/><use width="400" height="267" xlink:href="#a"/><use width="400" height="267" stroke="#072b5f" stroke-width="2" clip-path="url(#d)" xlink:href="#c"/></svg>