<svg xmlns="http://www.w3.org/2000/svg" width="92" height="41" viewBox="0 0 92 41" fill="none" fill-rule="evenodd">
  <defs>
    <pattern id="dot" x="0" y="0" width="2" height="2" patternUnits="userSpaceOnUse">
      <rect x="1" y="1" width="1" height="1" fill="#181829" />
    </pattern>
  </defs>
  <g id="bg">
    <rect width="92" height="41" fill="#000" />
    <rect width="92" height="41" fill="url(#dot)" />
    <path d="M11.5 19 V37.5 H90" stroke="#005284" stroke-width="1" stroke-dasharray="1 3" />
    <path d="M11.5 21 V37.5 H90" stroke="#639CF7" stroke-width="1" stroke-dasharray="1 3" />
  </g>
  <g id="status" fill="#00D500">
    <rect x="13" y="11" width="3" height="3" fill="#4E0F00" />
    <rect x="13" y="5" width="3" height="3" />
    <path d="M19 14V5H20V6H21V7H22V8H23V9H24V10H23V11H22V12H21V13H20V14H19Z" />
  </g>
  <g id="controls" fill="#333C49">
    <path id="O" d="M4 3H3V7H4V8H6V7H7V3H6V2H4V3ZM4 3V7H6V3H4Z" />
    <path id="A" d="M4 16V14H6V16H7V11H6V10H4V11H3V16H4ZM4 11V13H6V11H4Z" />
    <path id="I" d="M6 18H3V19H4V23H3V24H6V23H5V19H6V18Z" />
    <path id="D" d="M6 26H3 V32 H6 V31 H4 V27 H6 V26 Z M7 31 V27 H6 V31 H7 Z" />
    <path id="V" d="M4 33H3V38H4V39H6V38H7V33H6V37H4V33Z" />
  </g>
</svg>
